<svg width="42" height="42" viewBox="0 0 42 42" fill="none" xmlns="http://www.w3.org/2000/svg">
<path d="M3.5 21.357C3.5 17.3513 3.5 15.3492 4.41 13.6902C5.3165 12.0295 6.97725 11.0005 10.297 8.939L13.797 6.76725C17.3057 4.5885 19.061 3.5 21 3.5C22.939 3.5 24.6925 4.5885 28.203 6.76725L31.703 8.939C35.0227 11.0005 36.6835 12.0295 37.5918 13.6902C38.5 15.3492 38.5 17.3512 38.5 21.3553V24.0188C38.5 30.8438 38.5 34.258 36.449 36.379C34.3997 38.5 31.0992 38.5 24.5 38.5H17.5C10.9008 38.5 7.60025 38.5 5.551 36.379C3.5 34.258 3.5 30.8455 3.5 24.0188V21.357Z" stroke="black" stroke-width="1.5"/>
<path d="M21 26.25V31.5" stroke="black" stroke-width="1.5" stroke-linecap="round"/>
</svg>
